<svg width="21" height="22" viewBox="0 0 21 22" fill="none" xmlns="http://www.w3.org/2000/svg">
<path d="M20.5764 18.9238C19.9067 18.3268 19.3204 17.6425 18.8333 16.8891C18.3015 15.8492 17.9828 14.7136 17.8958 13.5488V10.1183C17.893 9.70157 17.8558 9.28581 17.7847 8.87522C17.2381 8.76596 16.7128 8.56897 16.2292 8.29188C16.4135 8.88553 16.5072 9.50361 16.5069 10.1252V13.5558C16.592 14.9766 16.9829 16.3624 17.6528 17.6183C18.1322 18.378 18.7011 19.0774 19.3472 19.7016H1.56249C2.2086 19.0774 2.77749 18.378 3.25693 17.6183C3.9268 16.3624 4.31765 14.9766 4.40276 13.5558V10.1183C4.39911 9.31458 4.55402 8.51807 4.85863 7.77433C5.16323 7.03059 5.61155 6.35424 6.17791 5.78401C6.74428 5.21378 7.41756 4.76086 8.1592 4.4512C8.90085 4.14153 9.69629 3.9812 10.5 3.97938C11.6762 3.98032 12.826 4.32817 13.8055 4.97938C13.6976 4.58285 13.637 4.17491 13.625 3.76411V3.32661C12.8999 2.96991 12.1209 2.73528 11.3194 2.63216V1.75716C11.3194 1.51128 11.2218 1.27548 11.0479 1.10161C10.874 0.927753 10.6382 0.830078 10.3923 0.830078C10.1465 0.830078 9.91066 0.927753 9.7368 1.10161C9.56294 1.27548 9.46526 1.51128 9.46526 1.75716V2.66688C7.67062 2.92005 6.02816 3.81393 4.84111 5.1835C3.65406 6.55308 3.00258 8.30587 3.00693 10.1183V13.5488C2.91996 14.7136 2.60122 15.8492 2.06943 16.8891C1.59088 17.6407 1.01401 18.325 0.354153 18.9238C0.280078 18.9889 0.22071 19.069 0.179999 19.1588C0.139287 19.2486 0.118167 19.3461 0.118042 19.4447V20.3891C0.118042 20.5733 0.191206 20.7499 0.32144 20.8802C0.451674 21.0104 0.628308 21.0836 0.812487 21.0836H20.118C20.3022 21.0836 20.4789 21.0104 20.6091 20.8802C20.7393 20.7499 20.8125 20.5733 20.8125 20.3891V19.4447C20.8124 19.3461 20.7912 19.2486 20.7505 19.1588C20.7098 19.069 20.6505 18.9889 20.5764 18.9238Z" fill="white"/>
</svg>
